<?xml version="1.0" encoding="UTF-8" standalone="no"?>
<!-- Created with Inkscape (http://www.inkscape.org/) -->

<svg
   width="75.672058mm"
   height="99.876053mm"
   viewBox="0 0 75.672058 99.876053"
   version="1.1"
   id="svg1"
   xml:space="preserve"
   xmlns:inkscape="http://www.inkscape.org/namespaces/inkscape"
   xmlns:sodipodi="http://sodipodi.sourceforge.net/DTD/sodipodi-0.dtd"
   xmlns="http://www.w3.org/2000/svg"
   xmlns:svg="http://www.w3.org/2000/svg"><sodipodi:namedview
     id="namedview1"
     pagecolor="#ffffff"
     bordercolor="#000000"
     borderopacity="0.25"
     inkscape:showpageshadow="2"
     inkscape:pageopacity="0.0"
     inkscape:pagecheckerboard="0"
     inkscape:deskcolor="#d1d1d1"
     inkscape:document-units="mm"><inkscape:page
       x="-2.2411079e-22"
       y="0"
       width="75.672058"
       height="99.876053"
       id="page2"
       margin="0"
       bleed="0" /></sodipodi:namedview><defs
     id="defs1" /><g
     inkscape:groupmode="layer"
     id="layer7"
     inkscape:label="Corpo Verde Claro"
     style="display:inline"
     transform="translate(-65.939128,-69.750227)"><path
       style="fill:#58ac43;fill-opacity:1;stroke:none;stroke-width:7.26501;stroke-linecap:round;stroke-linejoin:round;paint-order:fill markers stroke"
       d="m 131.03518,88.247796 c -2.36738,-2.01608 -3.10208,-3.047507 -6.87919,-3.651883 -4.25211,-0.680381 -4.68999,-0.331604 -6.72869,0.626465 -3.94769,1.855183 -6.16899,3.968798 -8.66452,8.866697 -5.8477,11.477095 1.32345,17.245955 -12.333647,32.433555 l -8.909717,-14.71031 -14.501495,-6.70549 -4.246038,26.68275 17.030554,14.84953 7.378361,1.64736 26.149092,0.69608 14.64071,-21.99587 -3.57317,-20.25569 0.84608,-8.436738 c 0,0 0.0539,-6.479641 -0.20833,-10.046456 z"
       id="path6"
       sodipodi:nodetypes="csssccccccccccc" /></g><g
     inkscape:groupmode="layer"
     id="layer2"
     inkscape:label="Corpo VerdeEscuro"
     style="display:inline"
     transform="translate(-65.939128,-69.750227)"><path
       style="display:inline;fill:#03662c;fill-opacity:1;stroke:none;stroke-width:7.26501;stroke-linecap:round;stroke-linejoin:round;paint-order:fill markers stroke"
       d="m 88.428669,145.55146 c 0,0 -2.879694,-3.41014 -12.060745,-8.90756 -5.022912,-3.00761 -6.10577,-9.30175 -6.10577,-9.30175 0,0 2.791243,3.82002 5.784166,5.89642 3.938986,2.73275 10.853503,7.09377 10.853503,7.09377 0,0 -2.560864,-11.17482 -4.395274,-16.49674 -1.83441,-5.32192 -6.611184,-15.43479 -6.611184,-15.43479 0,0 5.979002,5.89298 8.61001,10.95616 2.631007,5.06318 5.851964,19.43958 5.851964,19.43958 0,0 4.946358,-7.3341 6.079146,-12.1583 1.724248,-7.34305 -0.6278,-17.05415 -5.887172,-22.46085 C 80.240465,93.581833 66.038745,96.626459 66.038745,96.626459 l 1.663769,4.479371 c 0,0 -1.324838,15.86514 -1.727759,24.31659 -0.468553,9.82812 3.839461,20.86108 3.839461,20.86108 0,0 6.418259,-1.04503 14.120092,0.31099 11.670229,2.0547 22.753262,6.73357 29.124442,7.55991 10.18964,1.32159 18.14522,-1.19559 24.69469,-8.09911 5.92687,-6.24727 5.02463,-23.34618 -2.70831,-37.20178 -2.9973,-5.37045 -3.79952,-10.563282 -3.79952,-10.563282 0,0 -6.34342,1.412372 -7.29498,9.534662 -1.04774,8.94322 3.70493,16.45797 0.83705,26.11064 -1.62253,5.46113 -5.27624,9.527 -8.68818,11.2194 -5.23458,2.59646 -16.465461,2.53637 -16.465461,2.53637 6.689431,-0.98157 12.848961,-2.70248 17.830361,-7.5945 4.70506,-5.19565 4.82933,-9.49581 4.89019,-16.00588 0,0 -10.36632,-2.28843 -19.00907,3.44321 -5.098486,3.38118 -8.714811,8.97102 -11.134441,14.58995 -0.735077,1.70701 -0.947201,4.4085 -0.947201,4.4085 z"
       id="path1"
       sodipodi:nodetypes="cscsczczcssccscsssscssscscsscc" /></g><g
     inkscape:groupmode="layer"
     id="layer3"
     inkscape:label="Olho"
     transform="translate(-65.939128,-69.750227)"><ellipse
       style="fill:#03662c;fill-opacity:1;stroke:none;stroke-width:7.26501;stroke-linecap:round;stroke-linejoin:round;paint-order:fill markers stroke"
       id="path2"
       cx="124.68654"
       cy="93.042961"
       rx="2.5276458"
       ry="2.6876233" /></g><g
     inkscape:groupmode="layer"
     id="layer4"
     inkscape:label="Crista"
     transform="translate(-65.939128,-69.750227)"><path
       style="fill:#03662c;fill-opacity:1;stroke:none;stroke-width:7.26501;stroke-linecap:round;stroke-linejoin:round;paint-order:fill markers stroke"
       d="m 124.51823,84.708102 c 3.81678,0.841128 5.95949,3.087591 5.95949,3.087591 0,0 -0.33669,-6.511513 -2.8873,-10.062091 -3.35841,-4.675089 -9.15938,-6.642489 -9.15938,-6.642489 0,0 -0.63687,0.866522 -0.89028,2.821075 -0.11782,0.908755 0.0108,2.749066 0.0108,2.749066 0,0 -2.69441,-3.014591 -4.33072,-4.172541 -1.662,-1.176134 -5.45991,-2.738492 -5.45991,-2.738492 0,0 -1.63732,3.394374 -1.02386,7.039014 0.42351,2.516147 2.34267,4.812544 4.47937,6.207131 2.20116,1.436659 6.43667,2.128896 6.43667,2.128896 2.20921,-0.89173 4.74505,-0.884372 6.86512,-0.41716 z"
       id="path3"
       sodipodi:nodetypes="scscscscsscs" /></g><g
     inkscape:groupmode="layer"
     id="layer5"
     inkscape:label="Bunda Verde Escuro"
     style="display:inline"
     transform="translate(-65.939128,-69.750227)"><path
       style="display:inline;fill:#03662c;fill-opacity:1;stroke:none;stroke-width:7.26501;stroke-linecap:round;stroke-linejoin:round;paint-order:fill markers stroke"
       d="m 70.402788,148.64115 c 0,0 4.596653,9.76174 16.199393,16.72763 6.681617,4.01142 15.676049,4.81965 23.418679,3.93246 6.07867,-0.69652 12.17595,-3.41592 16.99176,-7.18994 6.27466,-4.91728 8.70092,-10.84173 8.70092,-10.84173 0,0 -8.99776,5.54451 -14.21811,5.82344 -10.59998,0.56637 -13.33371,-1.31875 -20.42532,-3.46292 -5.66547,-1.71297 -11.379017,-3.72908 -16.610242,-4.57808 -4.940548,-0.80183 -14.05708,-0.41086 -14.05708,-0.41086 z"
       id="path4"
       sodipodi:nodetypes="cssscsssc" /></g><g
     inkscape:groupmode="layer"
     id="layer6"
     inkscape:label="Bico"
     transform="translate(-65.939128,-69.750227)"><path
       style="fill:#e5d830;fill-opacity:1;stroke:none;stroke-width:7.26501;stroke-linecap:round;stroke-linejoin:round;paint-order:fill markers stroke"
       d="m 131.04624,88.235161 c 0,0 2.99367,1.405693 5.84277,3.765434 1.62772,1.348145 4.12062,4.81905 4.12062,4.81905 0,0 -2.77205,-0.663877 -5.39582,-0.264781 -1.45672,0.221579 -4.38086,1.246273 -4.38086,1.246273 z"
       id="path5"
       sodipodi:nodetypes="cscscc" /></g><g
     inkscape:groupmode="layer"
     id="layer9"
     inkscape:label="Azul"
     transform="translate(-65.939128,-69.750227)"><path
       style="display:inline;fill:#07668f;fill-opacity:1;stroke:none;stroke-width:7.26501;stroke-linecap:round;stroke-linejoin:round;paint-order:fill markers stroke"
       d="m 70.407261,148.64064 c 0,0 0.278019,0.59176 0.949938,1.70955 0.486012,0.80853 1.188254,1.92023 2.064195,3.07893 6.050082,0.15953 11.849877,0.46366 18.495211,2.68968 7.18325,2.40619 9.395985,3.28655 17.549605,5.08621 6.13994,1.35519 12.25128,1.05579 16.84127,-0.66875 1.42233,-0.5344 3.43249,-1.35165 5.27298,-2.84516 3.29565,-4.0586 4.13389,-6.42204 4.13389,-6.42204 0,0 -7.13624,4.92489 -17.07852,5.83101 -8.56336,0.78045 -16.48525,-4.06217 -34.178819,-8.11821 -4.878647,-1.11837 -14.04975,-0.34122 -14.04975,-0.34122 z"
       id="path4-5"
       sodipodi:nodetypes="cscsssccssc" /></g></svg>
